<?xml version="1.0" encoding="UTF-8"?>
<svg xmlns="http://www.w3.org/2000/svg" xmlns:xlink="http://www.w3.org/1999/xlink" width="24px" height="24px" viewBox="0 0 24 24" version="1.1">
<g id="surface1">
<path style=" stroke:none;fill-rule:nonzero;fill:rgb(65.882353%,67.843137%,94.117647%);fill-opacity:1;" d="M 24 12 C 24 18.628906 18.628906 24 12 24 C 5.371094 24 0 18.628906 0 12 C 0 5.371094 5.371094 0 12 0 C 18.628906 0 24 5.371094 24 12 Z M 24 12 "/>
<path style=" stroke:none;fill-rule:nonzero;fill:rgb(59.607843%,62.352941%,92.54902%);fill-opacity:1;" d="M 12 0 C 11.46875 0 10.945312 0.0351562 10.433594 0.101562 C 16.324219 0.867188 20.871094 5.902344 20.871094 12 C 20.871094 18.097656 16.324219 23.132812 10.433594 23.898438 C 10.945312 23.964844 11.46875 24 12 24 C 18.628906 24 24 18.628906 24 12 C 24 5.371094 18.628906 0 12 0 Z M 12 0 "/>
<path style=" stroke:none;fill-rule:nonzero;fill:rgb(100%,100%,100%);fill-opacity:1;" d="M 19.585938 5.351562 L 19.527344 5.203125 C 19.523438 5.195312 19.519531 5.195312 19.515625 5.191406 L 19.371094 5.125 C 18.160156 4.574219 16.449219 4.4375 14.941406 4.378906 L 13.238281 4.378906 C 13.21875 4.378906 13.210938 4.40625 13.230469 4.414062 L 16.726562 6.089844 C 16.746094 6.097656 16.734375 6.128906 16.714844 6.121094 C 15.140625 5.710938 13.554688 5.503906 11.984375 5.503906 C 10.421875 5.503906 8.835938 5.710938 7.269531 6.117188 C 7.25 6.125 7.238281 6.09375 7.257812 6.085938 L 10.878906 4.414062 C 10.894531 4.40625 10.890625 4.378906 10.871094 4.378906 L 9.03125 4.378906 C 7.519531 4.4375 5.808594 4.574219 4.597656 5.125 L 4.453125 5.191406 C 4.449219 5.195312 4.445312 5.195312 4.441406 5.203125 L 4.382812 5.351562 C 3.144531 8.492188 2.792969 13.824219 3.167969 17.160156 L 3.1875 17.335938 L 3.328125 17.445312 C 5.261719 18.945312 7.851562 19.71875 9.480469 19.921875 L 9.691406 19.949219 C 9.757812 19.957031 9.824219 19.917969 9.847656 19.855469 L 10.90625 17.023438 C 10.941406 16.933594 10.882812 16.835938 10.792969 16.824219 L 10.464844 16.773438 C 9.332031 16.59375 7.726562 16.121094 6.367188 14.890625 C 6.339844 14.863281 6.367188 14.816406 6.402344 14.828125 C 6.515625 14.871094 6.636719 14.917969 6.761719 14.96875 C 7.066406 15.085938 7.386719 15.210938 7.59375 15.261719 C 9.046875 15.605469 10.523438 15.78125 11.984375 15.78125 L 11.984375 15.757812 L 11.988281 15.757812 L 11.988281 15.78125 C 13.445312 15.78125 14.921875 15.605469 16.375 15.261719 C 16.582031 15.210938 16.902344 15.085938 17.207031 14.96875 C 17.332031 14.917969 17.457031 14.871094 17.566406 14.828125 C 17.601562 14.816406 17.628906 14.863281 17.601562 14.890625 C 16.246094 16.117188 14.640625 16.585938 13.503906 16.765625 L 13.175781 16.816406 C 13.085938 16.832031 13.027344 16.925781 13.0625 17.015625 L 14.121094 19.855469 C 14.144531 19.917969 14.210938 19.957031 14.277344 19.949219 L 14.488281 19.921875 C 16.117188 19.71875 18.707031 18.945312 20.640625 17.445312 L 20.78125 17.335938 L 20.800781 17.160156 C 21.175781 13.824219 20.824219 8.492188 19.585938 5.351562 Z M 8.523438 13.0625 C 7.207031 13.179688 6.109375 12.082031 6.226562 10.765625 C 6.316406 9.753906 7.128906 8.941406 8.140625 8.851562 C 9.457031 8.734375 10.554688 9.832031 10.4375 11.148438 C 10.347656 12.160156 9.535156 12.972656 8.523438 13.0625 Z M 15.828125 13.0625 C 14.511719 13.179688 13.414062 12.082031 13.53125 10.765625 C 13.621094 9.753906 14.433594 8.941406 15.445312 8.851562 C 16.761719 8.734375 17.859375 9.832031 17.742188 11.148438 C 17.652344 12.160156 16.839844 12.972656 15.828125 13.0625 Z M 15.828125 13.0625 "/>
</g>
</svg>
