<?xml version="1.0" encoding="UTF-8"?>
<svg xmlns="http://www.w3.org/2000/svg" xmlns:xlink="http://www.w3.org/1999/xlink" width="24px" height="24px" viewBox="0 0 24 24" version="1.1">
<g id="surface1">
<path style=" stroke:none;fill-rule:nonzero;fill:rgb(100%,100%,100%);fill-opacity:1;" d="M 3.601562 0 L 20.398438 0 C 22.386719 0 24 1.613281 24 3.601562 L 24 20.398438 C 24 22.386719 22.386719 24 20.398438 24 L 3.601562 24 C 1.613281 24 0 22.386719 0 20.398438 L 0 3.601562 C 0 1.613281 1.613281 0 3.601562 0 Z M 3.601562 0 "/>
<path style=" stroke:none;fill-rule:nonzero;fill:rgb(34.509804%,39.607843%,94.901961%);fill-opacity:1;" d="M 18.09375 6.421875 C 16.96875 5.90625 15.773438 5.53125 14.515625 5.3125 C 14.492188 5.3125 14.46875 5.3125 14.460938 5.339844 C 14.304688 5.617188 14.132812 5.972656 14.015625 6.253906 C 12.65625 6.050781 11.320312 6.050781 10 6.253906 C 9.875 5.960938 9.703125 5.609375 9.53125 5.339844 C 9.515625 5.320312 9.496094 5.304688 9.472656 5.3125 C 8.394531 5.527344 7.015625 5.921875 5.910156 6.421875 C 5.902344 6.421875 5.890625 6.429688 5.886719 6.441406 C 3.589844 9.863281 2.980469 13.144531 3.308594 16.425781 C 3.308594 16.4375 3.320312 16.457031 3.332031 16.472656 C 4.832031 17.578125 6.285156 18.253906 7.71875 18.6875 C 7.742188 18.6875 7.765625 18.6875 7.78125 18.671875 C 8.117188 18.210938 8.417969 17.722656 8.679688 17.207031 C 8.695312 17.179688 8.679688 17.140625 8.648438 17.132812 C 8.179688 16.945312 7.710938 16.730469 7.273438 16.476562 C 7.242188 16.457031 7.238281 16.40625 7.273438 16.382812 C 7.367188 16.3125 7.460938 16.242188 7.546875 16.171875 C 7.5625 16.15625 7.585938 16.15625 7.601562 16.164062 C 10.480469 17.476562 13.601562 17.476562 16.414062 16.164062 C 16.433594 16.152344 16.457031 16.15625 16.472656 16.167969 C 16.5625 16.242188 16.648438 16.3125 16.742188 16.382812 C 16.777344 16.40625 16.773438 16.457031 16.742188 16.476562 C 16.308594 16.734375 15.851562 16.945312 15.371094 17.132812 C 15.335938 17.148438 15.324219 17.179688 15.34375 17.210938 C 15.605469 17.726562 15.910156 18.210938 16.234375 18.664062 C 16.246094 18.683594 16.269531 18.695312 16.292969 18.683594 C 17.726562 18.238281 19.1875 17.570312 20.691406 16.46875 C 20.703125 16.457031 20.714844 16.445312 20.714844 16.421875 C 21.078125 12.628906 20.101562 9.34375 18.117188 6.4375 C 18.117188 6.425781 18.101562 6.417969 18.09375 6.417969 Z M 9.09375 14.4375 C 8.203125 14.4375 7.5 13.640625 7.5 12.65625 C 7.5 11.671875 8.203125 10.875 9.09375 10.875 C 9.984375 10.875 10.6875 11.671875 10.6875 12.65625 C 10.6875 13.640625 9.984375 14.4375 9.09375 14.4375 Z M 14.953125 14.4375 C 14.0625 14.4375 13.359375 13.640625 13.359375 12.65625 C 13.359375 11.671875 14.0625 10.875 14.953125 10.875 C 15.84375 10.875 16.546875 11.671875 16.546875 12.65625 C 16.546875 13.640625 15.84375 14.4375 14.953125 14.4375 Z M 14.953125 14.4375 "/>
</g>
</svg>
